{"title":"Full.Circle.S03E01.720p.HDTV.x264-TheRealTT","uid":15795378,"size":761951899,"categoryP":"video","categoryS":"hd___tv_shows","magnet":"?xt=urn:btih:2d61175c0a624cc00fec9279edc6cb356a526888&amp;dn=Full.Circle.S03E01.720p.HDTV.x264-TheRealTT&amp;tr=udp%3A%2F%2Ftracker.leechers-paradise.org%3A6969&amp;tr=udp%3A%2F%2Fzer0day.ch%3A1337&amp;tr=udp%3A%2F%2Fopen.demonii.com%3A1337&amp;tr=udp%3A%2F%2Ftracker.coppersurfer.tk%3A6969&amp;tr=udp%3A%2F%2Fexodus.desync.com%3A6969","seeders":5,"leechers":2,"uploader":"thetorrentlord","files":3,"time":1473450743,"description":"Grab the sample and if you like it then go for it.\t\t\t\t\t\t\t\r\n\r\n\t\t\t\t\t\t\t\t\t\t\t\t\t\r\n\r\nEnjoy and please share\t\t\t\t\t\t\t\t\t\t\t\t\t\t\t\t\t\t\t\t\t\t\t\t\t\t\t\t\t\t\t\t\t\t\t\tFull.Circle.S03E01Faulkner.And.Madeline.720p.HDTV.x264-TheRealTTL.mkv\r\nFormat                           : Matroska\r\nFormat version                   : Version 2\r\nFile size                        : 691 MiB\r\nDuration                         : 23mn 53s\r\nOverall bit rate                 : 4 045 Kbps\r\nMovie name                       : Full.Circle.S03E01Faulkner.And.Madeline.720p.HDTV.x264-TheRealTTL\r\nEncoded date                     : UTC 2016-09-09 17:10:23\r\nWriting application              : mkvmerge v3.3.0 ('Language') built on Mar 24 2010 14:59:24\r\nWriting library                  : libebml v0.8.0 + libmatroska v0.9.0\r\n\r\nVideo\r\nID                               : 1\r\nFormat                           : AVC\r\nFormat/Info                      : Advanced Video Codec\r\nFormat profile                   :   \r\nFormat settings, CABAC           : Yes\r\nFormat settings, ReFrames        : 4 frames\r\nCodec ID                         : V_MPEG4/ISO/AVC\r\nDuration                         : 23mn 53s\r\nBit rate                         : 3 725 Kbps\r\nWidth                            : 1 280 pixels\r\nHeight                           : 720 pixels\r\nDisplay aspect ratio             : 16:9\r\nFrame rate mode                  : Variable\r\nFrame rate                       : 29.970 fps\r\nColor space                      : YUV\r\nChroma subsampling               : 4:2:0\r\nBit depth                        : 8 bits\r\nScan type                        : Progressive\r\nBits/(Pixel*Frame)               : 0.135\r\nStream size                      : 623 MiB (90%)\r\nTitle                            : Full.Circle.S03E01Faulkner.And.Madeline.720p.HDTV.x264-TheRealTTL\r\nWriting library                  : x264 core 142 r2479 dd79a61\r\n\r\nLanguage                         : English\r\nDefault                          : No\r\nForced                           : No\r\nColor primaries                  : BT.709-5, BT.1361, IEC 61966-2-4, SMPTE RP177\r\nTransfer characteristics         : BT.709-5, BT.1361\r\nMatrix coefficients              : BT.709-5, BT.1361, IEC 61966-2-4 709, SMPTE RP177\r\n\r\nAudio\r\nID                               : 2\r\nFormat                           : AC-3\r\nFormat/Info                      : Audio Coding 3\r\nMode extension                   : CM (complete main)\r\nCodec ID                         : A_AC3\r\nDuration                         : 23mn 53s\r\nBit rate mode                    : Constant\r\nBit rate                         : 320 Kbps\r\nChannel(s)                       : 2 channels\r\nChannel positions                : Front: L R\r\nSampling rate                    : 48.0 KHz\r\nBit depth                        : 16 bits\r\nCompression mode                 : Lossy\r\nDelay relative to video          : -5ms\r\nStream size                      : 54.7 MiB (8%)\r\nTitle                            : Full.Circle.S03E01Faulkner.And.Madeline.720p.HDTV.x264-TheRealTTL\r\nLanguage                         : English\r\nDefault                          : No\r\nForced                           : No\r\n\r\nMenu\r\n00:00:00.000                     : :Chapter 1\r\n00:05:00.000                     : :Chapter 2\r\n00:10:00.000                     : :Chapter 3\r\n00:15:00.000                     : :Chapter 4\r\n00:20:00.000                     : :Chapter 5","torrent":{"xt":"urn:btih:2d61175c0a624cc00fec9279edc6cb356a526888","amp;dn":"Full.Circle.S03E01.720p.HDTV.x264-TheRealTT","amp;tr":["udp%3A%2F%2Ftracker.leechers-paradise.org%3A6969","udp%3A%2F%2Fzer0day.ch%3A1337","udp%3A%2F%2Fopen.demonii.com%3A1337","udp%3A%2F%2Ftracker.coppersurfer.tk%3A6969","udp%3A%2F%2Fexodus.desync.com%3A6969"],"infoHash":"2d61175c0a624cc00fec9279edc6cb356a526888","infoHashBuffer":{"type":"Buffer","data":[45,97,23,92,10,98,76,192,15,236,146,121,237,198,203,53,106,82,104,136]},"announce":[],"urlList":[]}}